<svg width="27" height="24" viewBox="0 0 27 24" fill="none" xmlns="http://www.w3.org/2000/svg">
<path d="M6.88589 1.15968C9.69627 0.45691 11.5415 1.33621 12.6651 2.45976C12.7875 2.58214 12.9006 2.70668 13.0051 2.83141C13.1278 2.9779 13.3091 3.06253 13.5002 3.06253C13.6913 3.06253 13.8726 2.9779 13.9953 2.8314C14.0998 2.70667 14.2129 2.58213 14.3353 2.45976C15.4589 1.33617 17.3043 0.456931 20.1153 1.15967C22.9229 1.8616 25.0419 3.97272 25.7491 6.62505C26.461 9.29516 25.7249 12.4329 22.9982 15.1596C19.9813 18.1765 17.4061 20.753 15.7854 22.3747C14.5244 23.6365 12.4827 23.6371 11.2211 22.3757L4.00388 15.1596C1.27608 12.4322 0.539973 9.29447 1.25217 6.62445C1.9596 3.97228 4.07894 1.8616 6.88589 1.15968Z" fill="#F2F2F2"/>
</svg>
