<svg width="31" height="31" viewBox="0 0 31 31" fill="none" xmlns="http://www.w3.org/2000/svg">
<rect width="31" height="31" fill="#336965"/>
<path d="M8.88589 5.15968C11.6963 4.45691 13.5415 5.33621 14.6651 6.45976C14.7875 6.58214 14.9006 6.70668 15.0051 6.83141C15.1278 6.9779 15.3091 7.06253 15.5002 7.06253C15.6913 7.06253 15.8726 6.9779 15.9953 6.8314C16.0998 6.70667 16.2129 6.58213 16.3353 6.45976C17.4589 5.33617 19.3043 4.45693 22.1153 5.15967C24.9229 5.8616 27.0419 7.97272 27.7491 10.625C28.461 13.2952 27.7249 16.4329 24.9982 19.1596C21.9813 22.1765 19.4061 24.753 17.7854 26.3747C16.5244 27.6365 14.4827 27.6371 13.2211 26.3757L6.00388 19.1596C3.27608 16.4322 2.53997 13.2945 3.25217 10.6244C3.9596 7.97228 6.07894 5.8616 8.88589 5.15968Z" fill="#F2F2F2"/>
</svg>
