<svg width="27" height="26" viewBox="0 0 27 26" fill="none" xmlns="http://www.w3.org/2000/svg">
<path d="M15.0159 1.0385C14.7669 0.754637 14.4034 0.588779 14.0189 0.583504C13.6344 0.578228 13.2662 0.734049 13.009 1.01096L1.00896 13.9276C0.656721 14.3068 0.567802 14.8512 0.782022 15.3172C0.996242 15.7832 1.47347 16.0834 2.00002 16.0834H4.66669V23.8334C4.66669 24.5467 5.26364 25.125 6.00002 25.125H11.3334V18.6667H16.6667V25.125H22C22.7364 25.125 23.3334 24.5467 23.3334 23.8334V16.0834H25.3334C25.8531 16.0834 26.3254 15.7908 26.5436 15.3339C26.7617 14.8769 26.6859 14.3388 26.3493 13.9552L15.0159 1.0385Z" fill="#F2F2F2"/>
</svg>
