<svg width="21" height="27" viewBox="0 0 21 27" fill="none" xmlns="http://www.w3.org/2000/svg">
<path fill-rule="evenodd" clip-rule="evenodd" d="M12.0356 0.515824C12.33 0.608395 12.5872 0.792456 12.7697 1.04124C12.9522 1.29002 13.0507 1.59055 13.0506 1.89912V9.14912H18.8506C19.1159 9.14901 19.3761 9.22164 19.6029 9.35912C19.8297 9.4966 20.0145 9.69366 20.1371 9.92885C20.2597 10.164 20.3154 10.4284 20.2982 10.693C20.2811 10.9577 20.1916 11.2126 20.0396 11.43L9.88964 25.93C9.71299 26.1831 9.4602 26.3732 9.16804 26.4727C8.87588 26.5721 8.55959 26.5758 8.2652 26.4831C7.97082 26.3904 7.71368 26.2062 7.53121 25.9573C7.34874 25.7084 7.25045 25.4078 7.25064 25.0991V17.8491H1.45065C1.18541 17.8492 0.92523 17.7766 0.698411 17.6391C0.471591 17.5016 0.286825 17.3046 0.164219 17.0694C0.0416139 16.8342 -0.0141332 16.5699 0.00304476 16.3052C0.0202227 16.0405 0.109668 15.7856 0.261645 15.5683L10.4116 1.06827C10.5886 0.815665 10.8414 0.626042 11.1335 0.526954C11.4255 0.427866 11.7415 0.424475 12.0356 0.517274V0.515824Z" fill="#F2C94C"/>
</svg>
