<svg width="29" height="29" viewBox="0 0 29 29" fill="none" xmlns="http://www.w3.org/2000/svg">
<path fill-rule="evenodd" clip-rule="evenodd" d="M12.0833 3.625C7.41192 3.625 3.625 7.41192 3.625 12.0833C3.625 16.7547 7.41192 20.5417 12.0833 20.5417C13.9832 20.5417 15.7368 19.9153 17.1489 18.8577L22.104 23.8128C22.5759 24.2847 23.341 24.2847 23.8128 23.8128C24.2847 23.341 24.2847 22.5759 23.8128 22.104L18.8577 17.1489C19.9153 15.7368 20.5417 13.9832 20.5417 12.0833C20.5417 7.41192 16.7547 3.625 12.0833 3.625ZM6.04167 12.0833C6.04167 8.74661 8.74661 6.04167 12.0833 6.04167C15.4201 6.04167 18.125 8.74661 18.125 12.0833C18.125 15.4201 15.4201 18.125 12.0833 18.125C8.74661 18.125 6.04167 15.4201 6.04167 12.0833Z" fill="#D1D5DB"/>
</svg>
