<svg width="22" height="25" viewBox="0 0 22 25" fill="none" xmlns="http://www.w3.org/2000/svg">
<path fill-rule="evenodd" clip-rule="evenodd" d="M2.52394 16.3789C4.0573 14.1651 6.77295 12.5 11.3012 12.5C15.8294 12.5 18.545 14.1651 20.0784 16.3789C21.5603 18.5186 21.7964 20.971 21.8011 22.328C21.8058 23.6926 20.7012 24.5833 19.5688 24.5833H3.03351C1.90105 24.5833 0.796485 23.6926 0.801224 22.328C0.805937 20.971 1.04198 18.5186 2.52394 16.3789Z" fill="#D1D5DB"/>
<path fill-rule="evenodd" clip-rule="evenodd" d="M11.3013 10.0833C13.8786 10.0833 15.9679 7.91934 15.9679 5.24996C15.9679 2.58058 13.8786 0.416626 11.3013 0.416626C8.72394 0.416626 6.6346 2.58058 6.6346 5.24996C6.6346 7.91934 8.72394 10.0833 11.3013 10.0833Z" fill="#D1D5DB"/>
</svg>
