<svg width="25" height="27" viewBox="0 0 25 27" fill="none" xmlns="http://www.w3.org/2000/svg">
<path fill-rule="evenodd" clip-rule="evenodd" d="M2.78225 17.6465C4.4799 15.28 7.48651 13.5 12.4999 13.5C17.5132 13.5 20.5199 15.28 22.2175 17.6465C23.8582 19.9337 24.1196 22.5553 24.1248 24.0059C24.13 25.4646 22.9071 26.4167 21.6533 26.4167H3.34642C2.09262 26.4167 0.869709 25.4646 0.874956 24.0059C0.880174 22.5553 1.1415 19.9337 2.78225 17.6465Z" fill="#F2F2F2"/>
<path fill-rule="evenodd" clip-rule="evenodd" d="M12.5 10.9167C15.3535 10.9167 17.6667 8.60351 17.6667 5.75004C17.6667 2.89657 15.3535 0.583374 12.5 0.583374C9.64653 0.583374 7.33334 2.89657 7.33334 5.75004C7.33334 8.60351 9.64653 10.9167 12.5 10.9167Z" fill="#F2F2F2"/>
</svg>
